<?xml version="1.0" encoding="UTF-8" standalone="no"?>
<!-- Created with Inkscape (http://www.inkscape.org/) -->

<svg
   xmlns:dc="http://purl.org/dc/elements/1.1/"
   xmlns:cc="http://creativecommons.org/ns#"
   xmlns:rdf="http://www.w3.org/1999/02/22-rdf-syntax-ns#"
   xmlns:svg="http://www.w3.org/2000/svg"
   xmlns="http://www.w3.org/2000/svg"
   xmlns:sodipodi="http://sodipodi.sourceforge.net/DTD/sodipodi-0.dtd"
   xmlns:inkscape="http://www.inkscape.org/namespaces/inkscape"
   width="80.975639mm"
   height="77.984978mm"
   viewBox="0 0 80.975639 77.984978"
   version="1.1"
   id="svg2080"
   inkscape:version="0.92.2 (5c3e80d, 2017-08-06)"
   sodipodi:docname="crane_origami.svg">
  <defs
     id="defs2074" />
  <sodipodi:namedview
     id="base"
     pagecolor="#ffffff"
     bordercolor="#666666"
     borderopacity="1.0"
     inkscape:pageopacity="0.0"
     inkscape:pageshadow="2"
     inkscape:zoom="0.35"
     inkscape:cx="88.739126"
     inkscape:cy="-501.19824"
     inkscape:document-units="mm"
     inkscape:current-layer="layer1"
     showgrid="false"
     fit-margin-top="0"
     fit-margin-left="0"
     fit-margin-right="0"
     fit-margin-bottom="0"
     inkscape:window-width="1600"
     inkscape:window-height="837"
     inkscape:window-x="1358"
     inkscape:window-y="-8"
     inkscape:window-maximized="1" />
  <metadata
     id="metadata2077">
    <rdf:RDF>
      <cc:Work
         rdf:about="">
        <dc:format>image/svg+xml</dc:format>
        <dc:type
           rdf:resource="http://purl.org/dc/dcmitype/StillImage" />
        <dc:title></dc:title>
      </cc:Work>
    </rdf:RDF>
  </metadata>
  <g
     inkscape:label="Layer 1"
     inkscape:groupmode="layer"
     id="layer1"
     transform="translate(100.96401,61.760347)">
    <path
       style="fill:none;stroke:#f2eff4;stroke-width:0.2;stroke-miterlimit:4;stroke-dasharray:none;stroke-opacity:1"
       d="m -62.019377,-1.8919355 -12.391379,-17.8037175 0.25895,-4.077205 c 0.14247,-2.242463 0.32702,-4.142307 0.410221,-4.221872 0.150788,-0.144185 19.172208,5.02824 19.752569,5.371235 0.167899,0.09924 1.30525,2.132216 2.527451,4.517731 l 2.222169,4.337296 -0.1943,14.8401225 -0.194299,14.8401195 z M -82.465266,-18.275645 c 0,-0.304964 7.51201,-9.370155 7.79212,-9.403204 0.11779,-0.01392 0.205279,2.148009 0.194299,4.804259 l -0.02,4.829545 -3.98321,0.0016 c -2.19077,7.94e-4 -3.98322,-0.103622 -3.98322,-0.232087 z m -0.77721,-14.073711 c 0,-7.460228 0.0774,-13.564052 0.17205,-13.564052 0.0946,0 1.36586,0.423146 2.82492,0.940323 l 2.65282,0.940322 2.30678,7.302735 c 1.63588,5.178764 2.168549,7.346807 1.831449,7.45426 -0.709139,0.226046 -1.336639,0.892042 -5.564499,5.905889 -2.12623,2.521516 -3.94634,4.584573 -4.04471,4.584573 -0.0984,0 -0.17881,-6.103824 -0.17881,-13.56405 z m 30.947309,11.380774 c -0.563528,-1.200796 -1.024379,-2.664042 -1.024109,-3.251655 l 5.29e-4,-1.068382 16.418131,-4.191347 c 9.030089,-2.30524 16.593119,-4.177453 16.80686,-4.160475 0.473419,0.03762 -30.133491,14.806369 -30.74403,14.834907 -0.237961,0.01111 -0.893739,-0.962244 -1.457251,-2.163048 z m -11.45222,-4.882941 c -4.98711,-1.393648 -9.162938,-2.625196 -9.27962,-2.736773 -0.250338,-0.239398 -0.486608,-0.139682 9.3647,-3.952235 4.250211,-1.644875 7.781401,-2.939301 7.847081,-2.876503 0.13644,0.13044 2.106851,11.127534 2.106851,11.758341 0,0.603924 -0.14173,0.572976 -10.039012,-2.19283 z m 9.670421,-2.811732 c -0.261401,-1.549464 -0.39914,-2.889994 -0.30611,-2.978957 0.15757,-0.150683 1.844471,4.902856 1.841751,5.517454 -7.93e-4,0.153291 -0.23953,0.278712 -0.530812,0.278712 -0.358688,0 -0.682969,-0.90914 -1.004829,-2.817209 z m -18.639719,-1.757376 c -0.978792,-2.503141 -1.26306,-2.27561 3.946038,-3.15839 2.620312,-0.44406 6.032032,-1.040339 7.581591,-1.325062 1.549569,-0.284726 2.81147,-0.411685 2.804199,-0.282138 -0.007,0.129553 -3.1633,1.437923 -7.013389,2.907503 -6.880501,2.626281 -7.00563,2.658049 -7.318439,1.858087 z m -0.940342,-3.136482 c -0.30167,-0.478824 -3.367749,-10.187466 -3.367749,-10.663813 0,-0.24862 -0.43718,-0.67578 -0.97151,-0.949246 -0.53434,-0.273465 -0.97152,-0.80494 -0.97152,-1.181054 0,-1.221803 1.97449,-14.593315 2.25424,-15.266068 0.19809,-0.47634 2.406791,2.946822 8.151871,12.634223 6.80964,11.482444 7.786309,13.323777 7.18923,13.553988 -0.57952,0.223436 -11.23832,2.150682 -11.894561,2.150682 -0.117941,0 -0.29342,-0.12542 -0.390001,-0.278712 z m -20.011299,-8.374581 c -4.13123,-0.195588 -7.366374,-0.474474 -7.189244,-0.619748 0.31483,-0.258183 15.780384,-3.365005 16.740724,-3.362987 0.33451,7.14e-4 0.48576,0.695253 0.48576,2.230729 v 2.229705 l -1.26297,-0.06104 c -0.69463,-0.03356 -4.64307,-0.221071 -8.77427,-0.416659 z m 0.51638,-3.071758 c 0.21373,-0.08042 2.59827,-0.790905 5.29899,-1.578854 l 4.91042,-1.432632 1.50161,1.070093 c 2.38402,1.698933 2.41661,1.880884 0.19332,1.078925 l -2.08552,-0.752253 -4.6714,0.90981 c -4.25213,0.828153 -6.17468,1.091433 -5.14742,0.704911 z"
       id="path1147"
       inkscape:connector-curvature="0"
       inkscape:export-xdpi="96"
       inkscape:export-ydpi="96" />
  </g>
</svg>
