<?xml version="1.0" encoding="UTF-8" standalone="no"?>
<!-- Created with Inkscape (http://www.inkscape.org/) -->

<svg
   xmlns:dc="http://purl.org/dc/elements/1.1/"
   xmlns:cc="http://creativecommons.org/ns#"
   xmlns:rdf="http://www.w3.org/1999/02/22-rdf-syntax-ns#"
   xmlns:svg="http://www.w3.org/2000/svg"
   xmlns="http://www.w3.org/2000/svg"
   xmlns:sodipodi="http://sodipodi.sourceforge.net/DTD/sodipodi-0.dtd"
   xmlns:inkscape="http://www.inkscape.org/namespaces/inkscape"
   width="60.522964mm"
   height="59.843292mm"
   viewBox="0 0 60.522964 59.843292"
   version="1.1"
   id="svg937"
   inkscape:version="0.92.2 (5c3e80d, 2017-08-06)"
   sodipodi:docname="elephant_origami.svg">
  <defs
     id="defs931" />
  <sodipodi:namedview
     id="base"
     pagecolor="#ffffff"
     bordercolor="#666666"
     borderopacity="1.0"
     inkscape:pageopacity="0.0"
     inkscape:pageshadow="2"
     inkscape:zoom="0.35"
     inkscape:cx="-581.34015"
     inkscape:cy="30.232541"
     inkscape:document-units="mm"
     inkscape:current-layer="layer1"
     showgrid="false"
     fit-margin-top="0"
     fit-margin-left="0"
     fit-margin-right="0"
     fit-margin-bottom="0"
     inkscape:window-width="1600"
     inkscape:window-height="837"
     inkscape:window-x="1358"
     inkscape:window-y="-8"
     inkscape:window-maximized="1" />
  <metadata
     id="metadata934">
    <rdf:RDF>
      <cc:Work
         rdf:about="">
        <dc:format>image/svg+xml</dc:format>
        <dc:type
           rdf:resource="http://purl.org/dc/dcmitype/StillImage" />
        <dc:title></dc:title>
      </cc:Work>
    </rdf:RDF>
  </metadata>
  <g
     inkscape:label="Layer 1"
     inkscape:groupmode="layer"
     id="layer1"
     transform="translate(-76.327796,-96.989067)">
    <path
       style="fill:#ffffff;stroke-width:0.0833775"
       d="m 114.59555,156.7532 c -0.11465,-0.041 -1.12768,-0.2638 -2.2512,-0.49521 -1.12351,-0.2314 -2.12001,-0.4535 -2.21444,-0.49355 -0.10355,-0.0439 -0.21465,-0.21703 -0.27991,-0.4362 -0.0595,-0.19986 -0.40034,-0.90743 -0.75738,-1.57236 -0.35704,-0.66494 -0.95696,-1.79053 -1.33315,-2.50133 -0.37619,-0.71079 -1.33598,-2.4367 -2.13286,-3.83536 l -1.44886,-2.54301 -1.04854,-8.21269 c -0.57669,-4.51697 -1.13635,-8.88804 -1.2437,-9.71348 l -0.19518,-1.50079 -4.178016,-6.98176 c -2.29791,-3.83996 -4.17802,-7.02077 -4.17802,-7.06846 0,-0.0741 0.94348,-2.0655 4.9525,-10.45334 l 0.63312,-1.324627 3.356276,0.07396 c 1.84595,0.04068 5.30731,0.06314 7.69191,0.04991 l 4.33563,-0.02405 1.62118,3.442527 c 0.89165,1.89338 2.11956,4.48999 2.72869,5.77023 0.86271,1.8132 1.0959,2.37529 1.05496,2.54301 -0.0289,0.11842 -1.86037,3.36698 -4.06994,7.21902 l -4.0174,7.00371 -0.64271,7.62904 c -0.35348,4.19597 -0.66481,8.00424 -0.69183,8.46281 l -0.0491,0.83378 0.63659,2.00106 c 0.35012,1.10058 1.15262,3.52474 1.78334,5.38702 l 1.14676,3.38596 1.54209,-1.11385 c 0.84815,-0.61263 1.58306,-1.1139 1.63312,-1.11393 0.0501,-4e-5 0.23315,0.31885 0.40683,0.70864 0.17368,0.38979 0.34799,0.70871 0.38734,0.70871 0.0882,0 0.65729,1.1154 0.65729,1.28825 0,0.18025 -3.25585,2.96124 -3.46017,2.95551 -0.0917,-0.002 -0.26055,-0.0382 -0.37519,-0.0791 z m 2.10528,-1.56958 c 0.81397,-0.69751 1.47995,-1.30326 1.47995,-1.34612 0,-0.0429 -0.10162,-0.28512 -0.22582,-0.53835 -0.24602,-0.50162 -0.40159,-0.56868 -0.65757,-0.28342 -0.19906,0.22183 -2.10126,1.91099 -2.32665,2.06607 -0.21174,0.14568 0.25534,-0.29903 1.48016,-1.4093 0.53119,-0.4815 0.96898,-0.93174 0.97288,-1.00053 0.0104,-0.18401 -0.42215,-1.16728 -0.51352,-1.16728 -0.043,0 -0.71275,0.45589 -1.48829,1.01309 -0.90312,0.64887 -1.41007,1.06565 -1.41007,1.15928 0,0.0804 0.15527,0.46977 0.34504,0.86526 0.18978,0.3955 0.32652,0.73761 0.30389,0.76024 -0.0226,0.0226 -0.16796,-0.25044 -0.32294,-0.60685 -0.15498,-0.3564 -0.37077,-0.73107 -0.47954,-0.83258 -0.14847,-0.13857 -0.55501,-1.25052 -1.63086,-4.4607 -0.7882,-2.35187 -1.60861,-4.83892 -1.82314,-5.52678 l -0.39005,-1.25067 0.0808,-1.16148 c 0.0445,-0.63882 0.34306,-4.27824 0.66353,-8.08762 0.32046,-3.80937 0.59497,-7.1447 0.61001,-7.41185 0.015,-0.26714 0.0646,-0.51102 0.11011,-0.54195 0.13971,-0.0949 7.93706,-13.74004 7.96662,-13.94132 0.0257,-0.17497 -0.18888,-0.27672 -2.95229,-1.39998 -1.63899,-0.66621 -2.96611,-1.22517 -2.94914,-1.24214 0.017,-0.017 1.25065,0.45687 2.74151,1.05297 1.49087,0.5961 2.80596,1.10774 2.92242,1.13697 0.19253,0.0483 -0.0221,-0.4416 -2.36365,-5.39479 -1.41647,-2.99637 -2.61478,-5.51361 -2.6629,-5.59386 -0.0605,-0.100905 -0.18373,-0.142866 -0.39946,-0.136044 -0.31082,0.0098 -0.31105,0.0101 -0.0618,0.07351 0.24524,0.0624 0.2436,0.06406 -0.0834,0.08449 l -0.33351,0.0208 0.29182,0.0516 c 0.20901,0.0369 -0.71372,0.21309 -3.25172,0.62081 -1.94895,0.31309 -3.62797,0.58918 -3.73115,0.61353 -0.18057,0.0426 -0.1876,0.0788 -0.1876,0.96627 0,0.50711 -0.0166,0.90542 -0.0369,0.88514 -0.0203,-0.0203 -0.0439,-0.46739 -0.0526,-0.99358 l -0.0157,-0.95671 1.28241,-0.21807 c 0.70533,-0.11994 2.18289,-0.3623 3.28347,-0.53857 2.47242,-0.39599 2.40437,-0.4163 -1.62586,-0.48535 -1.62795,-0.02789 -4.58446,-0.09258 -6.57003,-0.143762 -1.98558,-0.05117 -3.620116,-0.07923 -3.632316,-0.06235 -0.0369,0.051 -4.68306,9.807052 -5.09221,10.692582 -0.20923,0.45284 -0.38041,0.85335 -0.38041,0.89001 0,0.0367 1.86814,3.19302 4.15142,7.01413 4.057336,6.79003 4.154396,6.9626 4.282616,7.6145 0.0722,0.36686 1.02182,4.66095 2.11036,9.54241 l 1.97915,8.87539 1.28054,3.54785 c 0.70429,1.95133 1.28204,3.50684 1.28388,3.45669 0.002,-0.0501 -0.073,-0.31278 -0.16637,-0.58364 -0.33089,-0.96018 -0.56677,-1.78608 -0.49794,-1.74354 0.0384,0.0237 0.0824,0.007 0.0977,-0.0367 0.0154,-0.0439 1.35992,1.42439 2.98787,3.26282 3.93772,4.44684 3.83778,4.34167 3.99765,4.20685 0.0712,-0.0601 0.79551,-0.67993 1.60949,-1.37743 z m -22.521596,-44.9091 c 0.0719,-0.0917 1.58707,-1.93019 3.3671,-4.0855 1.78004,-2.15531 3.248916,-3.93437 3.264176,-3.95348 0.0153,-0.0191 0.0419,-0.0191 0.0591,0 0.0332,0.0368 -6.434526,7.86009 -6.678346,8.07813 -0.13325,0.11916 -0.13405,0.11657 -0.012,-0.0392 z m 18.998896,-1.54249 c -0.0688,-0.0444 -0.0875,-0.0808 -0.0417,-0.0808 0.0459,0 0.13966,0.0364 0.20844,0.0808 0.0688,0.0445 0.0875,0.0808 0.0417,0.0808 -0.0459,0 -0.13965,-0.0364 -0.20844,-0.0808 z m -6.88914,-3.71029 c 1.6e-4,-0.50444 0.0139,-0.70005 0.0305,-0.43469 0.0166,0.26535 0.0164,0.67807 -2.7e-4,0.91715 -0.0168,0.23908 -0.0304,0.022 -0.0302,-0.48246 z m 8.00038,51.11593 c -0.942,-1.09109 -6.15848,-6.94763 -6.17494,-6.93261 -0.0107,0.01 0.26413,0.91045 0.61062,2.00161 0.3465,1.09116 0.64953,2.04545 0.67341,2.12066 0.0294,0.0925 0.0199,0.10443 -0.0292,0.0369 -0.0399,-0.0549 -0.11705,-0.0724 -0.17137,-0.0388 -0.0722,0.0446 -0.0549,0.12756 0.0642,0.30826 0.13837,0.20993 0.16384,0.22207 0.16879,0.0805 0.005,-0.14471 0.0166,-0.13992 0.0869,0.0362 0.0446,0.11165 0.0614,0.2543 0.0374,0.317 -0.0273,0.0712 -0.007,0.0916 0.0528,0.0543 0.0645,-0.0399 0.0789,-0.0136 0.0434,0.079 -0.0293,0.0763 -0.0232,0.13874 0.0136,0.13874 0.0368,0 0.0699,0.0469 0.0737,0.10422 0.008,0.121 0.39043,1.04342 0.46266,1.11565 0.0448,0.0448 4.0443,0.919 4.29649,0.93911 0.0609,0.005 -0.0329,-0.15751 -0.20845,-0.36083 z m -5.04609,-3.09271 c -0.0257,-0.0257 -0.0723,0.0206 -0.1036,0.10283 -0.0452,0.11883 -0.0357,0.12841 0.0467,0.0467 0.057,-0.0566 0.0826,-0.12383 0.0569,-0.1495 z m -1.78235,-4.41051 -1.46635,-4.06947 -1.86945,-8.41085 c -1.0282,-4.62597 -1.87241,-8.49553 -1.87604,-8.59904 -0.004,-0.1035 -0.0249,-0.14314 -0.0473,-0.0881 -0.0224,0.055 0.45567,3.97588 1.0623,8.71295 l 1.10298,8.61285 1.52115,2.68079 c 0.83663,1.47443 1.71575,3.05965 1.9536,3.5227 0.23785,0.46305 0.46872,0.84191 0.51303,0.84191 0.0443,0 0.0574,0.0375 0.029,0.0834 -0.0283,0.0459 -0.01,0.0834 0.0417,0.0834 0.0513,0 0.07,0.0375 0.0417,0.0834 -0.0283,0.0459 -0.01,0.0834 0.0417,0.0834 0.0513,0 0.07,0.0375 0.0417,0.0834 -0.0283,0.0459 -0.01,0.0834 0.0417,0.0834 0.0513,0 0.0664,0.0433 0.0337,0.0963 -0.0396,0.0641 -0.0225,0.0734 0.0509,0.028 0.0808,-0.05 0.0957,-0.0299 0.0555,0.0748 -0.037,0.0964 -0.0234,0.12361 0.0417,0.0834 0.067,-0.0414 0.078,-0.0108 0.0358,0.0999 -0.043,0.11289 -0.0347,0.13376 0.0282,0.0713 0.063,-0.0624 -0.33975,-1.2782 -1.37733,-4.15772 z m 1.41364,3.33843 c -0.0738,-0.21662 -0.14863,-0.37942 -0.16627,-0.36179 -0.0177,0.0177 0.0283,0.20931 0.10213,0.42593 0.0738,0.21662 0.14863,0.37942 0.16627,0.36179 0.0177,-0.0177 -0.0283,-0.2093 -0.10213,-0.42593 z m 9.59554,-19.1656 c -0.0729,-0.19512 -3.3743,-11.60651 -3.3743,-11.66342 0,-0.0311 0.60476,-1.00746 1.34392,-2.16958 1.29129,-2.03018 4.32575,-7.15918 4.32575,-7.3116 0,-0.0405 -1.27568,-2.76521 -2.83483,-6.05485 -1.55916,-3.28965 -2.83391,-6.042955 -2.83277,-6.118467 0.002,-0.100698 0.75638,-0.456416 2.83184,-1.334467 2.34175,-0.990703 2.88422,-1.191344 3.14543,-1.163379 0.43621,0.0467 15.72628,9.826623 15.76829,10.085803 0.0256,0.15799 -5.3e-4,0.15208 -0.33351,-0.0751 -0.19872,-0.1356 -3.5505,-2.28304 -7.44839,-4.77209 -3.8979,-2.489055 -7.25592,-4.637249 -7.46228,-4.773769 l -0.37521,-0.248219 0.21909,0.238165 c 0.12051,0.130991 3.15367,3.521153 6.74035,7.533693 3.58669,4.01254 6.54597,7.30463 6.57618,7.31574 0.0302,0.0111 0.40773,-0.7768 0.83895,-1.75092 0.43122,-0.97413 0.842,-1.86494 0.91284,-1.97959 0.0709,-0.11464 0.17344,-0.45232 0.22799,-0.75039 l 0.0992,-0.54196 0.009,0.63304 c 0.005,0.34817 -0.10121,1.34244 -0.23635,2.2095 -0.13513,0.86706 -0.4049,2.86499 -0.5995,4.43986 l -0.3538,2.86339 -3.38178,3.1426 c -8.44343,7.84627 -13.43043,12.35019 -13.67485,12.35019 -0.051,0 -0.11018,-0.0469 -0.1316,-0.10422 z m 1.07045,-0.87546 c 3.50214,-3.04347 15.82482,-14.43648 15.91992,-14.71887 0.0342,-0.10167 0.21473,-1.44177 0.40109,-2.978 0.28602,-2.35784 0.48328,-3.77035 0.70153,-5.0235 0.0543,-0.31195 -0.0556,-0.28915 -0.20108,0.0417 -0.0655,0.14904 -0.43495,0.9651 -0.82097,1.81346 -0.38601,0.84837 -1.2383,2.73122 -1.89397,4.18412 l -1.19213,2.64163 -4.85648,5.27923 c -5.67468,6.16863 -5.39371,5.87084 -5.46857,5.79599 -0.0668,-0.0668 -1.27822,-15.63793 -1.2662,-16.2751 0.004,-0.22929 0.0214,-0.34185 0.038,-0.25014 0.0166,0.0917 0.29242,3.63735 0.61297,7.87918 0.32056,4.24183 0.61141,7.8911 0.64636,8.10948 l 0.0635,0.39707 5.04433,-5.46908 5.04434,-5.46909 1.22971,-2.7111 1.22972,-2.7111 -0.73718,-0.80476 c -1.57682,-1.7214 -12.83765,-14.340738 -12.90616,-14.463165 -0.0614,-0.109763 -0.51476,0.05809 -2.95641,1.094709 l -2.88386,1.224351 0.43203,0.917155 c 0.23762,0.50443 1.53267,3.23764 2.87788,6.07379 l 2.44585,5.15664 -0.16053,0.29881 c -0.0883,0.16434 -0.14977,0.34705 -0.13665,0.40603 0.035,0.15708 -0.40445,0.7863 -0.50549,0.72385 -0.0491,-0.0304 -0.061,-0.0126 -0.0277,0.0413 0.0802,0.12973 -0.10248,0.44972 -0.21649,0.37926 -0.0555,-0.0343 -0.0685,-0.0187 -0.0327,0.0392 0.0701,0.11341 -0.14627,0.45624 -0.23312,0.3694 -0.0327,-0.0327 -0.0362,10e-4 -0.008,0.0755 0.0285,0.0742 0.006,0.16328 -0.0502,0.19794 -0.0695,0.0429 -0.0805,0.0282 -0.0345,-0.0461 0.0437,-0.0707 0.0348,-0.089 -0.0252,-0.0519 -0.0509,0.0315 -0.0716,0.112 -0.0459,0.17893 0.0261,0.0679 -0.0122,0.14428 -0.0865,0.17282 -0.0733,0.0281 -0.11248,0.0847 -0.0871,0.12577 0.0254,0.0411 0.0104,0.0746 -0.0334,0.0746 -0.0437,0 -0.29582,0.38458 -0.56021,0.85462 -0.26439,0.47004 -1.1557,1.92394 -1.98068,3.23088 -0.82499,1.30694 -1.49984,2.41378 -1.49968,2.45963 5.3e-4,0.13831 3.30306,11.46441 3.34291,11.46441 0.0203,0 0.41471,-0.3283 0.87644,-0.72955 z m -25.497566,0.54217 c -0.8575,-0.72155 -3.40412,-3.006 -5.87184,-5.26736 -3.86872,-3.5452 -10.51068,-9.70086 -10.60141,-9.82522 -0.0263,-0.0361 -0.20668,-1.34977 -0.40074,-2.91925 -0.19406,-1.56948 -0.46329,-3.55835 -0.59828,-4.4197 -0.13499,-0.86135 -0.24184,-1.85563 -0.23745,-2.2095 l 0.008,-0.64341 0.10473,0.54195 c 0.0576,0.29808 0.21599,0.76708 0.35198,1.04222 0.13599,0.27515 0.54384,1.16625 0.90633,1.98022 0.36249,0.81397 0.68044,1.47995 0.70656,1.47995 0.0482,0 12.87336,-14.305535 13.25587,-14.785997 l 0.20845,-0.261821 -0.25014,0.174558 c -0.13757,0.09601 -3.5894,2.306417 -7.67073,4.91202 -4.08132,2.60561 -7.4331,4.76846 -7.44839,4.80634 -0.0511,0.12671 -0.18068,0.0707 -0.1781,-0.077 0.002,-0.10129 2.35405,-1.65035 7.69157,-5.06518 7.55334,-4.832462 7.69712,-4.919692 8.14761,-4.943032 0.42718,-0.02213 0.64406,0.05547 3.16834,1.133708 1.72668,0.737543 2.71896,1.204388 2.7351,1.286798 0.0139,0.07113 -1.21945,2.750156 -2.74084,5.953376 -1.52139,3.20323 -2.80459,5.92003 -2.85156,6.03734 -0.0768,0.19185 0.0594,0.46349 1.35447,2.7014 0.79192,1.36846 2.06005,3.46639 2.81806,4.66206 0.75801,1.19568 1.38996,2.23124 1.40434,2.30125 0.0144,0.07 -0.73302,2.73455 -1.66089,5.92119 -1.2011,4.12497 -1.72264,5.79965 -1.81059,5.8139 -0.0679,0.011 -0.31115,-0.13783 -0.54044,-0.33077 z m 0.54196,0.0583 c 0,-0.0252 0.73357,-2.56712 1.63016,-5.64882 0.89659,-3.0817 1.63395,-5.65937 1.63857,-5.72816 0.005,-0.0688 -0.64752,-1.15686 -1.44922,-2.41794 -0.80169,-1.26109 -1.67248,-2.67746 -1.93508,-3.1475 -0.26261,-0.47005 -0.51508,-0.85462 -0.56107,-0.85462 -0.046,0 -0.0604,-0.0375 -0.0321,-0.0834 0.0283,-0.0459 0.0131,-0.0834 -0.0338,-0.0834 -0.0469,0 -0.12794,-0.0796 -0.17999,-0.17682 -0.0763,-0.14257 -0.0728,-0.16539 0.0179,-0.11783 0.0619,0.0324 0.0227,-0.0142 -0.087,-0.10357 -0.11379,-0.0927 -0.17385,-0.20419 -0.13971,-0.25943 0.0354,-0.0573 0.0147,-0.0875 -0.0505,-0.074 -0.0611,0.0127 -0.10531,-0.0419 -0.099,-0.1221 0.007,-0.0825 -0.0266,-0.12152 -0.0767,-0.0905 -0.0548,0.0339 -0.0681,0.002 -0.0353,-0.0833 0.0326,-0.0849 0.014,-0.13014 -0.0484,-0.1179 -0.0557,0.0109 -0.0961,-0.0454 -0.0898,-0.12517 0.006,-0.0798 -0.02,-0.12561 -0.0583,-0.10189 -0.0979,0.0605 -0.26522,-0.27811 -0.19419,-0.39303 0.0336,-0.0544 0.0215,-0.0717 -0.0287,-0.0407 -0.0984,0.0608 -0.3716,-0.31082 -0.34384,-0.46778 0.01,-0.0562 -0.0497,-0.23852 -0.13259,-0.40506 l -0.15068,-0.30279 2.84556,-6.00272 c 1.56507,-3.3015 2.84557,-6.036376 2.84557,-6.077507 0,-0.08412 -5.5142,-2.447203 -5.7105,-2.447203 -0.0693,0 -0.11654,0.03026 -0.10508,0.06725 0.0115,0.03699 -2.98074,3.42186 -6.64935,7.52194 -3.66861,4.10007 -6.73138,7.53124 -6.80616,7.62481 -0.12922,0.16171 -0.0795,0.29601 1.00459,2.71265 0.62729,1.39839 1.17623,2.60548 1.21986,2.68244 0.12576,0.22182 10.14744,11.08102 10.1885,11.03996 0.0279,-0.0279 1.20547,-14.94918 1.28368,-16.2659 l 0.0149,-0.25014 0.0332,0.26522 c 0.0314,0.25101 -1.09905,15.60659 -1.19124,16.18099 -0.0239,0.14904 -0.0748,0.27098 -0.11314,0.27098 -0.10229,0 -10.199,-10.97969 -10.33774,-11.2418 -0.0648,-0.12243 -0.65035,-1.40448 -1.30122,-2.84899 -1.88425,-4.18189 -2.65225,-5.87555 -2.68118,-5.91286 -0.10213,-0.13164 -0.0846,0.17119 0.0577,0.99856 0.0903,0.52463 0.33459,2.32334 0.54294,3.99714 0.20836,1.67381 0.39472,3.11872 0.41414,3.21093 0.0347,0.16465 1.34901,1.40901 7.00679,6.63373 5.6589,5.22577 9.66648,8.8319 9.81506,8.8319 0.0344,0 0.0625,-0.0206 0.0625,-0.0457 z"
       id="path1188"
       inkscape:connector-curvature="0"
       inkscape:export-xdpi="96"
       inkscape:export-ydpi="96" />
  </g>
</svg>
