<?xml version="1.0" encoding="UTF-8" standalone="no"?>
<!-- Created with Inkscape (http://www.inkscape.org/) -->

<svg
   xmlns:dc="http://purl.org/dc/elements/1.1/"
   xmlns:cc="http://creativecommons.org/ns#"
   xmlns:rdf="http://www.w3.org/1999/02/22-rdf-syntax-ns#"
   xmlns:svg="http://www.w3.org/2000/svg"
   xmlns="http://www.w3.org/2000/svg"
   xmlns:sodipodi="http://sodipodi.sourceforge.net/DTD/sodipodi-0.dtd"
   xmlns:inkscape="http://www.inkscape.org/namespaces/inkscape"
   width="69.641029mm"
   height="49.774433mm"
   viewBox="0 0 69.641029 49.774433"
   version="1.1"
   id="svg2646"
   inkscape:version="0.92.2 (5c3e80d, 2017-08-06)"
   sodipodi:docname="frog_origami.svg">
  <defs
     id="defs2640" />
  <sodipodi:namedview
     id="base"
     pagecolor="#ffffff"
     bordercolor="#666666"
     borderopacity="1.0"
     inkscape:pageopacity="0.0"
     inkscape:pageshadow="2"
     inkscape:zoom="0.35"
     inkscape:cx="275.89068"
     inkscape:cy="185.49023"
     inkscape:document-units="mm"
     inkscape:current-layer="layer1"
     showgrid="false"
     fit-margin-top="0"
     fit-margin-left="0"
     fit-margin-right="0"
     fit-margin-bottom="0"
     inkscape:window-width="1600"
     inkscape:window-height="837"
     inkscape:window-x="1358"
     inkscape:window-y="-8"
     inkscape:window-maximized="1" />
  <metadata
     id="metadata2643">
    <rdf:RDF>
      <cc:Work
         rdf:about="">
        <dc:format>image/svg+xml</dc:format>
        <dc:type
           rdf:resource="http://purl.org/dc/dcmitype/StillImage" />
        <dc:title></dc:title>
      </cc:Work>
    </rdf:RDF>
  </metadata>
  <g
     inkscape:label="Layer 1"
     inkscape:groupmode="layer"
     id="layer1"
     transform="translate(150.48119,-148.13652)">
    <g
       id="g3198">
      <path
         inkscape:export-ydpi="96"
         inkscape:export-xdpi="96"
         inkscape:connector-curvature="0"
         id="path1208"
         d="m -128.10828,194.73314 c 3.92906,-1.69618 7.27556,-3.16903 7.43667,-3.27299 0.16145,-0.10419 0.44424,-1.84352 0.63008,-3.87544 0.18544,-2.02753 0.42117,-3.82234 0.52384,-3.98847 0.13668,-0.22115 0.64115,-0.23024 1.88346,-0.0339 7.37944,1.16612 23.788268,2.39096 24.492718,1.82827 0.646001,-0.51601 1.148911,-2.07573 1.150329,-3.56765 7.94e-4,-0.85114 0.121862,-1.98094 0.26901,-2.51069 0.243811,-0.87778 0.425471,-1.02225 2.049042,-1.62955 0.979829,-0.36651 3.359089,-1.28246 5.28724,-2.03546 3.340748,-1.30464 3.505729,-1.40404 3.505729,-2.11215 0,-0.44657 -0.34312,-1.16204 -0.85989,-1.79305 -0.72734,-0.88812 -1.288151,-1.204 -3.638019,-2.04914 -1.527971,-0.54953 -2.86793,-1.07864 -2.977692,-1.17579 -0.109749,-0.0971 -0.01331,-0.80383 0.214352,-1.5704 0.70579,-2.37664 0.74566,-2.33617 -3.58666,-3.64067 -2.11006,-0.63535 -4.268771,-1.27488 -4.797142,-1.42118 -0.955079,-0.26444 -0.9682,-0.28785 -2.248048,-4.0104 -0.708051,-2.05942 -1.942609,-5.06497 -2.743479,-6.67901 -1.36308,-2.74709 -1.51014,-2.93983 -2.30137,-3.01642 -0.52803,-0.0511 -3.30837,0.72796 -7.40834,2.07588 -3.60969,1.18673 -7.39652,2.31896 -8.41517,2.51605 -1.911,0.36976 -17.08554,4.70015 -17.61336,5.02636 -0.50841,0.31421 -2.09789,3.90092 -2.10215,4.74356 -0.005,1.07056 -0.0852,1.16232 -2.37719,2.73231 -6.19934,4.24656 -8.60329,6.08168 -8.68411,6.62924 -0.0806,0.54583 -0.009,0.56913 1.32292,0.43303 0.77443,-0.0791 2.53515,-0.24719 3.9127,-0.3735 l 2.50463,-0.22966 0.92909,0.76583 c 0.51099,0.42121 1.07852,0.76583 1.26116,0.76583 0.18264,0 1.93189,-0.59958 3.88722,-1.3324 3.50525,-1.31371 3.59215,-1.33135 6.19215,-1.25677 l 2.63701,0.0756 -1.89949,5.15938 c -1.04472,2.83765 -2.21073,5.64546 -2.59113,6.23958 -1.60671,2.50935 -4.37502,8.53537 -6.46238,14.06719 l -0.62398,1.65364 2.04825,-0.0265 c 2.00558,-0.026 2.19707,-0.0908 9.192,-3.11051 z m -9.26975,0.0282 c 2.24598,-5.6687 3.50882,-8.40055 5.38152,-11.64167 0.80108,-1.38643 1.07129,-1.65364 1.67229,-1.65364 0.88222,0 9.82817,1.30632 9.97902,1.45718 0.13603,0.13602 -0.67966,7.81947 -0.848,7.9878 -0.0677,0.0677 -3.55626,1.59778 -7.7524,3.40022 -5.00985,2.15197 -7.96068,3.28012 -8.59435,3.28577 l -0.96501,0.009 z m 42.797018,-10.63263 c 0.02389,-0.84231 -0.219321,-1.33977 -0.65518,-1.33977 -0.21745,0 -0.213079,0.0888 0.01561,0.3175 0.17463,0.17463 0.3175,0.65088 0.3175,1.05834 0,0.73876 -0.005,0.74083 -1.799191,0.74083 -5.319977,0 -33.085217,-3.3108 -33.805467,-4.03105 -0.0992,-0.0992 0.61023,-2.35823 1.57659,-5.02 0.96636,-2.66177 1.75519,-4.9884 1.75296,-5.1703 -0.002,-0.1819 0.0911,-0.33073 0.20737,-0.33073 0.11629,0 0.36026,-0.41157 0.54216,-0.9146 0.74284,-2.05428 1.10478,-1.72612 -5.59628,-5.07398 -3.37564,-1.68647 -6.18368,-3.10911 -6.24011,-3.16142 -0.0564,-0.0523 0.23296,-0.73599 0.64307,-1.5193 l 0.74566,-1.42418 7.56892,-2.15535 c 4.1629,-1.18543 7.75137,-2.15534 7.97437,-2.15534 0.22299,0 1.6321,1.08851 3.13134,2.41891 6.05213,5.37055 13.66288,13.60848 18.211848,19.71263 1.12277,1.50661 2.145871,2.73929 2.273559,2.73929 0.12769,0 0.116832,-0.14882 -0.0241,-0.33071 -0.140965,-0.18191 -1.131824,-1.46183 -2.201905,-2.84428 -5.183442,-6.69651 -14.325042,-16.4489 -19.092152,-20.36778 -0.97017,-0.79755 -1.71317,-1.50086 -1.65111,-1.56292 0.21109,-0.21109 2.63082,-0.49879 2.76374,-0.3286 0.0728,0.0932 1.08479,0.87366 2.24895,1.73443 4.32668,3.19911 7.79419,6.21189 12.19526,10.596 4.463135,4.44593 6.463572,6.75347 8.435483,9.73044 1.120399,1.69145 1.565111,2.056 0.681799,0.5589 -0.99405,-1.68479 -3.333519,-4.65421 -5.630277,-7.14636 -2.912195,-3.15993 -9.231105,-9.176 -11.210405,-10.67313 -0.85879,-0.64959 -1.83053,-1.43685 -2.15941,-1.74947 -0.32889,-0.31263 -1.43021,-1.12679 -2.4474,-1.80924 -1.01718,-0.68246 -1.84666,-1.32258 -1.84328,-1.42249 0.006,-0.19168 13.41118,-4.58786 13.91098,-4.56221 0.45035,0.0231 3.08182,5.8249 4.478053,9.87308 l 1.255601,3.64044 2.279298,0.68357 c 1.253622,0.37597 3.431781,1.03637 4.840351,1.46755 l 2.56105,0.78397 -0.424219,1.37431 c -0.793279,2.56998 -0.856631,2.48018 2.622219,3.71672 2.80267,0.99619 3.172262,1.2053 4.015671,2.27201 l 0.928899,1.17485 -2.825041,1.09665 c -1.553768,0.60316 -3.978809,1.53949 -5.388969,2.08074 -2.952049,1.13304 -2.978759,1.17262 -3.216238,4.76529 -0.076,1.14968 -0.247232,2.16171 -0.380543,2.24897 -0.133299,0.0873 -0.381068,0.42211 -0.55059,0.74412 -0.409008,0.77688 -1.063087,0.50151 -1.036428,-0.43632 z m -0.58665,-1.75116 c 0,-0.30325 -2.1697,-3.32793 -2.296369,-3.20126 -0.0728,0.0728 0.359069,0.85584 0.959609,1.74018 1.006391,1.48198 1.33676,1.84307 1.33676,1.46108 z m 1.322919,-6.58534 c 0,-0.43244 -1.947148,-6.75473 -2.04897,-6.6529 -0.059,0.0589 0.32793,1.57624 0.859742,3.37176 0.887008,2.99482 1.189228,3.82864 1.189228,3.28114 z m -2.39989,-7.92692 c 0.0307,-0.39441 -1.375219,-5.03286 -1.605309,-5.29619 -0.11717,-0.1341 0.0316,0.62069 0.330621,1.67729 0.620509,2.19267 1.24719,3.97185 1.274688,3.6189 z m -44.974127,4.19164 c -0.18864,-0.22729 -0.95527,-0.81968 -1.70361,-1.3164 l -1.36064,-0.90314 -2.19132,0.67296 c -1.20523,0.37013 -2.1467,0.71758 -2.09216,0.77212 0.0545,0.0545 1.04854,-0.17488 2.20889,-0.50981 1.9635,-0.56677 2.1546,-0.57959 2.75709,-0.18494 l 0.64736,0.42404 -1.30882,0.17273 c -3.02431,0.39915 -4.6456,0.44819 -4.54291,0.13742 0.11229,-0.33984 6.10816,-4.67039 8.38909,-6.05908 1.35416,-0.82445 1.46542,-0.97036 1.66989,-2.18998 0.12049,-0.71867 0.25997,-1.34757 0.30995,-1.39756 0.076,-0.076 11.70783,5.6625 12.01782,5.92898 0.0565,0.0485 -0.0527,0.64297 -0.24248,1.32097 l -0.34514,1.23271 -3.09637,-0.12752 -3.09637,-0.12752 -3.27573,1.25135 c -3.63643,1.38914 -4.24475,1.50488 -4.74454,0.90267 z"
         style="fill:#808080;stroke:#f2f2f2;stroke-width:0.08;stroke-miterlimit:4;stroke-dasharray:none;stroke-opacity:1" />
    </g>
  </g>
</svg>
