<?xml version="1.0" encoding="UTF-8" standalone="no"?>
<!-- Created with Inkscape (http://www.inkscape.org/) -->

<svg
   xmlns:dc="http://purl.org/dc/elements/1.1/"
   xmlns:cc="http://creativecommons.org/ns#"
   xmlns:rdf="http://www.w3.org/1999/02/22-rdf-syntax-ns#"
   xmlns:svg="http://www.w3.org/2000/svg"
   xmlns="http://www.w3.org/2000/svg"
   xmlns:sodipodi="http://sodipodi.sourceforge.net/DTD/sodipodi-0.dtd"
   xmlns:inkscape="http://www.inkscape.org/namespaces/inkscape"
   width="148.16295mm"
   height="56.339298mm"
   viewBox="0 0 148.16294 56.339299"
   version="1.1"
   id="svg951"
   inkscape:version="0.92.2 (5c3e80d, 2017-08-06)"
   sodipodi:docname="orismple_logo.svg">
  <defs
     id="defs945" />
  <sodipodi:namedview
     id="base"
     pagecolor="#ffffff"
     bordercolor="#666666"
     borderopacity="1.0"
     inkscape:pageopacity="0.0"
     inkscape:pageshadow="2"
     inkscape:zoom="0.35"
     inkscape:cx="-585.67199"
     inkscape:cy="-51.996761"
     inkscape:document-units="mm"
     inkscape:current-layer="layer1"
     showgrid="false"
     fit-margin-top="0"
     fit-margin-left="0"
     fit-margin-right="0"
     fit-margin-bottom="0"
     inkscape:window-width="1600"
     inkscape:window-height="837"
     inkscape:window-x="1358"
     inkscape:window-y="-8"
     inkscape:window-maximized="1" />
  <metadata
     id="metadata948">
    <rdf:RDF>
      <cc:Work
         rdf:about="">
        <dc:format>image/svg+xml</dc:format>
        <dc:type
           rdf:resource="http://purl.org/dc/dcmitype/StillImage" />
        <dc:title></dc:title>
      </cc:Work>
    </rdf:RDF>
  </metadata>
  <g
     inkscape:label="Layer 1"
     inkscape:groupmode="layer"
     id="layer1"
     transform="translate(-28.936287,-78.736558)">
    <text
       id="text1009"
       y="117.12197"
       x="46.471275"
       style="font-style:normal;font-variant:normal;font-weight:bold;font-stretch:normal;font-size:30.96647263px;line-height:1.25;font-family:Trench;-inkscape-font-specification:'Trench Bold';letter-spacing:0px;word-spacing:0px;fill:#de668c;fill-opacity:1;stroke:none;stroke-width:0.77416176"
       xml:space="preserve"
       inkscape:export-xdpi="96"
       inkscape:export-ydpi="96"><tspan
         style="font-style:normal;font-variant:normal;font-weight:bold;font-stretch:normal;font-family:Trench;-inkscape-font-specification:'Trench Bold';fill:#de668c;fill-opacity:1;stroke-width:0.77416176"
         y="117.12197"
         x="46.471275"
         id="tspan1007"
         sodipodi:role="line">Orisimple</tspan></text>
    <g
       transform="matrix(0.53790207,-0.33918676,0.376565,0.48450939,-122.46561,148.49809)"
       id="g1015"
       style="stroke:#3c145f;stroke-opacity:1"
       inkscape:export-xdpi="96"
       inkscape:export-ydpi="96">
      <path
         style="fill:#3d145f;fill-opacity:1;stroke:#3c145f;stroke-width:0.17208627px;stroke-linecap:butt;stroke-linejoin:miter;stroke-opacity:1"
         d="m 261.09963,105.96801 -12.36216,-36.217519 13.17427,-5.651722 11.16395,5.851963 -11.61124,35.842728 z"
         id="path1011"
         inkscape:connector-curvature="0" />
      <path
         style="fill:#de678c;fill-opacity:1;stroke:#3c145f;stroke-width:0.17208627;stroke-opacity:1"
         d="m 254.76583,63.791945 6.17793,-5.634264 6.04808,5.528342 c 3.32644,3.04059 6.15423,5.629386 6.28397,5.752893 0.19946,0.189859 -0.70131,3.116644 -5.8307,18.945053 -3.33663,10.29628 -6.11721,18.720511 -6.17908,18.720511 -0.13788,0 -12.70532,-37.061518 -12.68945,-37.421346 0.006,-0.141309 2.79139,-2.792341 6.18925,-5.891189 z m 0.24131,24.254848 6.09249,17.921217 -0.0937,-2.36036 c -0.0876,-2.20602 -0.7724,-22.684707 -1.03121,-30.838798 l -0.11589,-3.651014 -1.62411,0.106702 c -0.89327,0.05868 -3.35809,0.200287 -5.47739,0.314668 -2.53395,0.13677 -3.85145,0.272759 -3.84795,0.397171 0.003,0.104059 2.74694,8.253742 6.09781,18.110414 z m 12.26295,-0.174839 5.8056,-17.921222 -0.44133,-0.123189 c -0.37223,-0.103901 -9.1492,-0.670399 -10.3074,-0.665278 l -0.3811,0.002 -0.0167,4.764417 c -0.009,2.620436 -0.11165,9.721172 -0.2277,15.779415 -0.11606,6.058244 -0.21686,12.155833 -0.224,13.550193 l -0.013,2.53519 z"
         id="path1013"
         inkscape:connector-curvature="0" />
    </g>
    <text
       inkscape:export-ydpi="96"
       inkscape:export-xdpi="96"
       xml:space="preserve"
       style="font-style:normal;font-variant:normal;font-weight:bold;font-stretch:normal;font-size:30.96647263px;line-height:1.25;font-family:Trench;-inkscape-font-specification:'Trench Bold';letter-spacing:0px;word-spacing:0px;fill:#de668c;fill-opacity:1;stroke:none;stroke-width:0.77416176"
       x="46.471275"
       y="117.12197"
       id="text1019"><tspan
         sodipodi:role="line"
         id="tspan1017"
         x="46.471275"
         y="117.12197"
         style="font-style:normal;font-variant:normal;font-weight:bold;font-stretch:normal;font-family:Trench;-inkscape-font-specification:'Trench Bold';fill:#de668c;fill-opacity:1;stroke-width:0.77416176">Orisimple</tspan></text>
    <g
       inkscape:export-ydpi="96"
       inkscape:export-xdpi="96"
       style="stroke:#3c145f;stroke-opacity:1"
       id="g1025"
       transform="matrix(0.53790207,-0.33918676,0.376565,0.48450939,-122.46561,148.49809)">
      <path
         inkscape:connector-curvature="0"
         id="path1021"
         d="m 261.09963,105.96801 -12.36216,-36.217519 13.17427,-5.651722 11.16395,5.851963 -11.61124,35.842728 z"
         style="fill:#3d145f;fill-opacity:1;stroke:#3c145f;stroke-width:0.17208627px;stroke-linecap:butt;stroke-linejoin:miter;stroke-opacity:1" />
      <path
         inkscape:connector-curvature="0"
         id="path1023"
         d="m 254.76583,63.791945 6.17793,-5.634264 6.04808,5.528342 c 3.32644,3.04059 6.15423,5.629386 6.28397,5.752893 0.19946,0.189859 -0.70131,3.116644 -5.8307,18.945053 -3.33663,10.29628 -6.11721,18.720511 -6.17908,18.720511 -0.13788,0 -12.70532,-37.061518 -12.68945,-37.421346 0.006,-0.141309 2.79139,-2.792341 6.18925,-5.891189 z m 0.24131,24.254848 6.09249,17.921217 -0.0937,-2.36036 c -0.0876,-2.20602 -0.7724,-22.684707 -1.03121,-30.838798 l -0.11589,-3.651014 -1.62411,0.106702 c -0.89327,0.05868 -3.35809,0.200287 -5.47739,0.314668 -2.53395,0.13677 -3.85145,0.272759 -3.84795,0.397171 0.003,0.104059 2.74694,8.253742 6.09781,18.110414 z m 12.26295,-0.174839 5.8056,-17.921222 -0.44133,-0.123189 c -0.37223,-0.103901 -9.1492,-0.670399 -10.3074,-0.665278 l -0.3811,0.002 -0.0167,4.764417 c -0.009,2.620436 -0.11165,9.721172 -0.2277,15.779415 -0.11606,6.058244 -0.21686,12.155833 -0.224,13.550193 l -0.013,2.53519 z"
         style="fill:#de678c;fill-opacity:1;stroke:#3c145f;stroke-width:0.17208627;stroke-opacity:1" />
    </g>
    <text
       id="text1029"
       y="117.12197"
       x="46.471275"
       style="font-style:normal;font-variant:normal;font-weight:bold;font-stretch:normal;font-size:30.96647263px;line-height:1.25;font-family:Trench;-inkscape-font-specification:'Trench Bold';letter-spacing:0px;word-spacing:0px;fill:#de668c;fill-opacity:1;stroke:none;stroke-width:0.77416176"
       xml:space="preserve"
       inkscape:export-xdpi="96"
       inkscape:export-ydpi="96"><tspan
         style="font-style:normal;font-variant:normal;font-weight:bold;font-stretch:normal;font-family:Trench;-inkscape-font-specification:'Trench Bold';fill:#de668c;fill-opacity:1;stroke-width:0.77416176"
         y="117.12197"
         x="46.471275"
         id="tspan1027"
         sodipodi:role="line">Orisimple</tspan></text>
    <g
       transform="matrix(0.53790207,-0.33918676,0.376565,0.48450939,-122.46561,148.49809)"
       id="g1035"
       style="stroke:#3c145f;stroke-opacity:1"
       inkscape:export-xdpi="96"
       inkscape:export-ydpi="96">
      <path
         style="fill:#3d145f;fill-opacity:1;stroke:#3c145f;stroke-width:0.17208627px;stroke-linecap:butt;stroke-linejoin:miter;stroke-opacity:1"
         d="m 261.09963,105.96801 -12.36216,-36.217519 13.17427,-5.651722 11.16395,5.851963 -11.61124,35.842728 z"
         id="path1031"
         inkscape:connector-curvature="0" />
      <path
         style="fill:#de678c;fill-opacity:1;stroke:#3c145f;stroke-width:0.17208627;stroke-opacity:1"
         d="m 254.76583,63.791945 6.17793,-5.634264 6.04808,5.528342 c 3.32644,3.04059 6.15423,5.629386 6.28397,5.752893 0.19946,0.189859 -0.70131,3.116644 -5.8307,18.945053 -3.33663,10.29628 -6.11721,18.720511 -6.17908,18.720511 -0.13788,0 -12.70532,-37.061518 -12.68945,-37.421346 0.006,-0.141309 2.79139,-2.792341 6.18925,-5.891189 z m 0.24131,24.254848 6.09249,17.921217 -0.0937,-2.36036 c -0.0876,-2.20602 -0.7724,-22.684707 -1.03121,-30.838798 l -0.11589,-3.651014 -1.62411,0.106702 c -0.89327,0.05868 -3.35809,0.200287 -5.47739,0.314668 -2.53395,0.13677 -3.85145,0.272759 -3.84795,0.397171 0.003,0.104059 2.74694,8.253742 6.09781,18.110414 z m 12.26295,-0.174839 5.8056,-17.921222 -0.44133,-0.123189 c -0.37223,-0.103901 -9.1492,-0.670399 -10.3074,-0.665278 l -0.3811,0.002 -0.0167,4.764417 c -0.009,2.620436 -0.11165,9.721172 -0.2277,15.779415 -0.11606,6.058244 -0.21686,12.155833 -0.224,13.550193 l -0.013,2.53519 z"
         id="path1033"
         inkscape:connector-curvature="0" />
    </g>
    <rect
       style="opacity:1;fill:none;fill-opacity:1;fill-rule:nonzero;stroke:none;stroke-width:0.60508615;stroke-miterlimit:4;stroke-dasharray:none;stroke-dashoffset:0;stroke-opacity:1"
       id="rect827"
       width="147.55786"
       height="55.734211"
       x="29.238831"
       y="79.039101"
       rx="8.4411888"
       ry="6.2446313" />
  </g>
</svg>
